Coordinates
version=1
nRows=22
nColumns=18
inDegrees=yes

Units are S.I. units (second, meters, Newtons, ...)
If the header above contains a line with 'inDegrees', this indicates whether rotational values are in degrees (yes) or radians (no).

endheader
time	ground_thorax_rot_x	ground_thorax_rot_y	ground_thorax_rot_z	ground_thorax_tx	ground_thorax_ty	ground_thorax_tz	clav_prot	clav_elev	scapula_abduction	scapula_elevation	scapula_upward_rot	scapula_winging	plane_elv	shoulder_elv	axial_rot	elbow_flexion	pro_sup
      1.70000000	      2.70416281	     -6.11190930	    -25.74380271	      0.06497421	     -0.01273523	      0.02551160	    -25.95633363	     -6.01336179	    -33.00981171	     -5.06343890	     12.01572066	     17.12650235	    -62.28127090	     42.06006453	     61.95056018	     12.09812375	   -164.88017167
      1.72000000	      2.59819327	     -6.15359202	    -25.92513732	      0.06550250	     -0.01313546	      0.02507935	    -25.97224529	     -5.91760377	    -33.06676862	     -4.99692367	     12.02749740	     17.09805395	    -62.32102048	     42.25687831	     61.94690436	     12.02748908	   -164.87982943
      1.74000000	      2.44014980	     -6.04576142	    -26.00618867	      0.06572616	     -0.01332511	      0.02443878	    -25.96157861	     -5.85984959	    -33.11131881	     -4.93576085	     11.96390198	     17.10125307	    -62.46165339	     42.36427984	     61.81205516	     11.60525135	   -164.86643505
      1.76000000	      2.35317415	     -6.06487220	    -26.14667589	      0.06602668	     -0.01364143	      0.02400846	    -25.97225367	     -5.78719731	    -33.14828314	     -4.88685815	     11.97869441	     17.07829627	    -62.48210831	     42.51901061	     61.80919454	     11.55319904	   -164.86433159
      1.78000000	      2.26243543	     -5.96636920	    -26.23599739	      0.06608651	     -0.01382448	      0.02343651	    -25.95685020	     -5.75865124	    -33.17796749	     -4.84496021	     11.90797777	     17.09128874	    -62.53859622	     42.61889111	     61.70554384	     11.28962746	   -164.82879395
      1.80000000	      2.19903599	     -5.97129683	    -26.31858585	      0.06614368	     -0.01400394	      0.02307112	    -25.96447200	     -5.71461650	    -33.19888484	     -4.81693442	     11.92243970	     17.07591681	    -62.54542163	     42.72011756	     61.70239074	     11.25608672	   -164.82575770
      1.82000000	      2.08923744	     -5.90362145	    -26.28384292	      0.06585346	     -0.01404262	      0.02256218	    -25.86512928	     -5.67855121	    -33.20903900	     -4.70891902	     11.65502126	     17.14383556	    -62.33018737	     42.85081784	     60.56227889	     11.05327437	   -164.78693804
      1.84000000	      2.02521286	     -5.76982051	    -26.35560071	      0.06575903	     -0.01396126	      0.02218939	    -25.96747423	     -5.89127538	    -33.35244248	     -4.85597106	     11.59628606	     17.21410350	    -62.46638649	     42.98233336	     60.83417168	     11.08063354	   -163.87500023
      1.86000000	      1.98749629	     -5.68528308	    -26.31728307	      0.06536531	     -0.01383178	      0.02182107	    -25.95211245	     -5.97515394	    -33.37358147	     -4.88255857	     11.47363525	     17.27073987	    -62.42520199	     43.09114669	     60.46542277	     11.10667783	   -163.83458377
      1.88000000	      1.97530471	     -5.56783099	    -26.26665699	      0.06485715	     -0.01364239	      0.02147196	    -25.95463278	     -6.08584600	    -33.40848553	     -4.93371724	     11.36384791	     17.33065986	    -62.41580689	     43.16592216	     60.14581210	     11.18256450	   -163.69605919
      1.90000000	      1.97309899	     -5.49372702	    -26.20010703	      0.06427776	     -0.01342256	      0.02120301	    -25.94564712	     -6.20384838	    -33.39491778	     -5.00044305	     11.29232870	     17.38186196	    -62.40672620	     43.12810375	     60.48330553	     11.18409482	   -163.55454682
      1.92000000	      2.02403578	     -5.44043294	    -26.09518600	      0.06354346	     -0.01314612	      0.02102028	    -25.93386410	     -6.25936536	    -33.34829194	     -5.04286844	     11.29941426	     17.39455079	    -62.36703213	     43.02319887	     60.48468186	     11.21983422	   -163.55440729
      1.94000000	      2.09629968	     -5.37430208	    -25.95688856	      0.06268591	     -0.01278979	      0.02087022	    -25.91851246	     -6.33353560	    -33.29008714	     -5.09816984	     11.30385903	     17.41304212	    -62.31898913	     42.88292212	     60.48679993	     11.26884179	   -163.55416156
      1.96000000	      2.18934184	     -5.29509302	    -25.78585950	      0.06170959	     -0.01236012	      0.02075234	    -25.89961682	     -6.42632447	    -33.21998327	     -5.16649525	     11.30629356	     17.43726081	    -62.26216077	     42.70799687	     60.48998182	     11.33227022	   -163.55382032
      1.98000000	      2.30213852	     -5.20209618	    -25.58286356	      0.06061791	     -0.01186194	      0.02066431	    -25.87718966	     -6.53760083	    -33.13741058	     -5.24806084	     11.30781027	     17.46699515	    -62.19583759	     42.49958281	     60.49461441	     11.41131263	   -163.55335428
      2.00000000	      2.35648564	     -4.92668013	    -25.42554841	      0.05960737	     -0.01121053	      0.02036355	    -25.88501723	     -7.07736527	    -33.16371908	     -5.55875833	     10.98675013	     17.70725390	    -62.24656430	     42.63971367	     61.01128552	     11.91813039	   -163.95387038
      2.02000000	      2.49629067	     -4.80840423	    -25.15656733	      0.05828520	     -0.01059257	      0.02031800	    -25.85497834	     -7.22097747	    -33.05281138	     -5.66575960	     10.99439934	     17.74648080	    -62.15890635	     42.36106312	     61.01414576	     12.01410751	   -163.95331913
      2.04000000	      2.63042210	     -4.69583044	    -24.94573106	      0.05704034	     -0.00996662	      0.02021261	    -25.78082684	     -7.54599318	    -32.80884675	     -5.90014451	     10.98512832	     17.84428792	    -62.24832350	     42.23830963	     61.42467554	     12.49248901	   -164.30233973
      2.06000000	      2.79299366	     -4.54391118	    -24.61437786	      0.05548227	     -0.00923764	      0.02019547	    -25.74492544	     -7.72262568	    -32.67061811	     -6.03393445	     11.00191269	     17.89262410	    -62.13496565	     41.90106224	     61.42878187	     12.61006975	   -164.30026498
      2.08000000	      3.01130667	     -4.47788617	    -24.35505801	      0.05404067	     -0.00857258	      0.02031526	    -25.71000479	     -7.96358788	    -32.47284551	     -6.23239921	     11.07897747	     17.94536616	    -61.99877933	     41.65256212	     61.56229522	     13.11016849	   -164.32798417
      2.10000000	      3.19236199	     -4.35533396	    -24.02485759	      0.05240153	     -0.00778190	      0.02034360	    -25.65329350	     -8.24828999	    -32.21520700	     -6.46456538	     11.16526996	     18.01109149	    -61.98360586	     41.38275483	     61.73412748	     13.54259730	   -164.37478480
      2.12000000	      3.37193490	     -4.14274988	    -23.60878276	      0.05046469	     -0.00691609	      0.02030858	    -25.60802253	     -8.46865113	    -32.03138462	     -6.63672499	     11.20526230	     18.07079196	    -61.83396113	     40.97391308	     61.74143626	     13.69078152	   -164.37049659
